<?xml version="1.0" encoding="UTF-8" standalone="no"?>
<svg
   xmlns:osb="http://www.openswatchbook.org/uri/2009/osb"
   xmlns:dc="http://purl.org/dc/elements/1.1/"
   xmlns:cc="http://creativecommons.org/ns#"
   xmlns:rdf="http://www.w3.org/1999/02/22-rdf-syntax-ns#"
   xmlns:svg="http://www.w3.org/2000/svg"
   xmlns="http://www.w3.org/2000/svg"
   xmlns:sodipodi="http://sodipodi.sourceforge.net/DTD/sodipodi-0.dtd"
   xmlns:inkscape="http://www.inkscape.org/namespaces/inkscape"
   width="210mm"
   height="297mm"
   viewBox="0 0 210 297"
   version="1.1"
   id="svg8"
   inkscape:version="1.0.2 (1.0.2+r75+1)"
   sodipodi:docname="drawing.svg"
   inkscape:export-filename="/home/user/Dropbox/my_gitpage/files/html/GSS/pics/drawing.png"
   inkscape:export-xdpi="96"
   inkscape:export-ydpi="96">
  <defs
     id="defs2">
    <inkscape:perspective
       sodipodi:type="inkscape:persp3d"
       inkscape:vp_x="14.179184 : 180.76802 : 1"
       inkscape:vp_y="100.13617 : 376.6962 : 0"
       inkscape:vp_z="74.853742 : 79.991026 : 1"
       inkscape:persp3d-origin="39.559722 : 111.73307 : 1"
       id="perspective885" />
    <linearGradient
       inkscape:collect="always"
       id="linearGradient867"
       osb:paint="gradient">
      <stop
         style="stop-color:#008200;stop-opacity:1;"
         offset="0"
         id="stop863" />
      <stop
         style="stop-color:#008200;stop-opacity:0;"
         offset="1"
         id="stop865" />
    </linearGradient>
    <rect
       x="92.647422"
       y="108.98034"
       width="91.711163"
       height="78.191589"
       id="rect855" />
  </defs>
  <sodipodi:namedview
     id="base"
     pagecolor="#ffffff"
     bordercolor="#666666"
     borderopacity="1.0"
     inkscape:pageopacity="0.0"
     inkscape:pageshadow="2"
     inkscape:zoom="0.7"
     inkscape:cx="333.20759"
     inkscape:cy="498.56922"
     inkscape:document-units="mm"
     inkscape:current-layer="layer1"
     inkscape:document-rotation="0"
     showgrid="false"
     inkscape:snap-intersection-paths="false"
     inkscape:object-nodes="true"
     inkscape:snap-nodes="true"
     inkscape:window-width="1600"
     inkscape:window-height="836"
     inkscape:window-x="0"
     inkscape:window-y="27"
     inkscape:window-maximized="1" />
  <metadata
     id="metadata5">
    <rdf:RDF>
      <cc:Work
         rdf:about="">
        <dc:format>image/svg+xml</dc:format>
        <dc:type
           rdf:resource="http://purl.org/dc/dcmitype/StillImage" />
        <dc:title></dc:title>
      </cc:Work>
    </rdf:RDF>
  </metadata>
  <g
     inkscape:label="Layer 1"
     inkscape:groupmode="layer"
     id="layer1">
    <path
       style="fill:none;stroke:#000000;stroke-width:0.369668px;stroke-linecap:round;stroke-linejoin:miter;stroke-opacity:1"
       d="m 100.7165,179.22687 -0.19995,10.8628"
       id="path919" />
    <path
       style="fill:none;stroke:#000000;stroke-width:0.29;stroke-linecap:round;stroke-linejoin:miter;stroke-miterlimit:4;stroke-dasharray:none;stroke-opacity:1"
       d="m 130.97384,161.25984 9.21651,4.52255"
       id="path921" />
    <path
       style="fill:none;stroke:#000000;stroke-width:0.319458px;stroke-linecap:round;stroke-linejoin:miter;stroke-opacity:1"
       d="m 122.84368,126.97014 6.82458,-6.27915"
       id="path913" />
    <path
       style="fill:none;stroke:#000000;stroke-width:0.307364px;stroke-linecap:round;stroke-linejoin:miter;stroke-opacity:1"
       d="m 83.363158,116.95413 3.964025,6.83709"
       id="path915" />
    <path
       style="fill:none;stroke:#000000;stroke-width:0.293024px;stroke-linecap:round;stroke-linejoin:miter;stroke-opacity:1"
       d="m 65.623043,159.60018 8.491808,-3.34415"
       id="path917" />
    <path
       sodipodi:type="star"
       style="fill:none;fill-opacity:1;fill-rule:evenodd;stroke:#0700ca;stroke-width:1.7;stroke-miterlimit:4;stroke-dasharray:none;stroke-opacity:1"
       id="path851"
       sodipodi:sides="5"
       sodipodi:cx="103.87657"
       sodipodi:cy="150.58749"
       sodipodi:r1="39.644829"
       sodipodi:r2="8.9330111"
       sodipodi:arg1="1.6556512"
       sodipodi:arg2="2.2839697"
       inkscape:flatsided="true"
       inkscape:rounded="0.09"
       inkscape:randomized="0"
       d="m 100.51655,190.08968 c -4.179384,-0.35549 -34.293688,-26.40622 -35.247094,-30.49091 -0.953405,-4.08468 14.51648,-40.77521 18.106628,-42.94419 3.590147,-2.16898 43.265366,1.20576 46.437606,3.94994 3.17224,2.74419 12.22299,41.52041 10.59339,45.38539 -1.6296,3.86498 -35.71115,24.45526 -39.89053,24.09977 z"
       inkscape:transform-center-y="-1.9944273e-06" />
    <text
       xml:space="preserve"
       id="text853"
       style="font-style:normal;font-variant:normal;font-weight:normal;font-stretch:normal;font-size:50.8px;line-height:1.55;font-family:'Monomakh Unicode';-inkscape-font-specification:'Monomakh Unicode';white-space:pre;shape-inside:url(#rect855);fill:#000000;fill-opacity:1;stroke:none;"
       transform="matrix(0.75508582,0,0,0.80818887,6.1092957,31.686451)"><tspan
         x="92.646484"
         y="160.13607"><tspan
           style="font-style:normal;font-variant:normal;font-weight:normal;font-stretch:normal;font-size:35.2778px;font-family:'Monomakh Unicode';-inkscape-font-specification:'Monomakh Unicode';fill:#000000;fill-opacity:1">GSS</tspan></tspan></text>
    <path
       sodipodi:type="star"
       style="fill:none;fill-opacity:1;fill-rule:evenodd;stroke:#9b00ca;stroke-width:1.28399;stroke-miterlimit:4;stroke-dasharray:none;stroke-opacity:1"
       id="path883"
       sodipodi:sides="5"
       sodipodi:cx="103.25429"
       sodipodi:cy="149.39138"
       sodipodi:r1="29.94323"
       sodipodi:r2="6.7469883"
       sodipodi:arg1="1.6556512"
       sodipodi:arg2="2.2839697"
       inkscape:flatsided="true"
       inkscape:rounded="0.09"
       inkscape:randomized="0"
       d="m 100.71651,179.22687 c -3.156639,-0.2685 -25.901586,-19.94429 -26.62168,-23.0294 -0.720095,-3.08511 10.96411,-30.79699 13.675703,-32.43519 2.711592,-1.6382 32.677777,0.9107 35.073727,2.98334 2.39595,2.07265 9.23186,31.35983 8.00105,34.279 -1.23081,2.91917 -26.97217,18.47075 -30.1288,18.20225 z"
       inkscape:transform-center-y="4.0164074e-06"
       inkscape:transform-center-x="-1.8539199e-06" />
    <path
       style="fill:#71dd34;fill-opacity:1;fill-rule:evenodd;stroke:#9b00ca;stroke-width:1.10719;stroke-linecap:round;stroke-miterlimit:4;stroke-dasharray:none;stroke-opacity:1"
       d="m 381.24418,700.05409 c 0,-18.32141 0.35094,-19.97653 4.40098,-20.75613 13.61403,-2.6206 84.28209,-44.62076 104.86828,-62.32638 3.15074,-2.70986 5.94218,-4.92703 6.20318,-4.92703 0.26101,0 7.18553,3.19172 15.38781,7.09271 l 14.91324,7.0927 -2.42861,2.62711 c -6.99129,7.56276 -39.88166,30.09789 -71.62405,49.07386 -31.11523,18.60106 -65.19332,36.13903 -70.22186,36.13903 -1.25316,0 -1.49897,-2.29832 -1.49897,-14.01587 z"
       id="path955"
       transform="scale(0.26458333)" />
    <path
       style="fill:#edec98;fill-opacity:1;fill-rule:evenodd;stroke:#9b00ca;stroke-width:0.276798;stroke-linecap:round;stroke-miterlimit:4;stroke-dasharray:none;stroke-opacity:1"
       d="m 512.23975,617.1923 -15.22526,-7.48938 0.19924,-1.01015 c 0.35763,-1.81312 0.18479,-10.89845 -0.27625,-14.52094 -1.52057,-11.94766 -4.08308,-26.04064 -7.73594,-42.54528 -7.84541,-35.44769 -16.57632,-64.77982 -21.62562,-72.65282 l -0.43102,-0.67206 1.37071,-1.25659 c 0.75389,-0.69112 5.57547,-5.13161 10.71462,-9.86776 l 9.34391,-8.61117 0.56481,0.69071 c 1.36838,1.6734 4.25731,8.34551 6.96925,16.09578 11.86453,33.90688 28.00154,104.20806 31.36063,136.62313 0.71842,6.93274 0.79886,12.81249 0.17415,12.72954 -0.0979,-0.013 -7.02933,-3.39385 -15.40323,-7.51301 z"
       id="path957"
       transform="scale(0.26458333)" />
    <path
       style="fill:#61ffcf;fill-opacity:0.56375498;fill-rule:evenodd;stroke:#9b00ca;stroke-width:0.276798;stroke-linecap:round;stroke-miterlimit:4;stroke-dasharray:none;stroke-opacity:1"
       d="m 465.04118,476.45085 c -4.46995,-2.85872 -21.44934,-6.10073 -46.51466,-8.88141 -26.50054,-2.9399 -52.93235,-4.53669 -70.04271,-4.23137 -10.50646,0.18747 -14.56906,0.64814 -17.48753,1.98294 -0.65935,0.30157 -1.24044,0.50062 -1.29132,0.44234 -0.29316,-0.33581 -12.78138,-22.04172 -12.71792,-22.10517 0.0423,-0.0423 0.754,-0.25372 1.58157,-0.46982 9.54465,-2.49236 42.63498,-1.9337 82.69568,1.39615 38.05431,3.16309 70.3255,7.80491 82.76937,11.90538 1.70148,0.56067 3.09359,1.09635 3.09359,1.1904 0,0.1731 -20.30486,18.95309 -20.81214,19.24916 -0.15113,0.0882 -0.7244,-0.12715 -1.27393,-0.4786 z"
       id="path959"
       transform="scale(0.26458333)" />
    <path
       style="fill:#ea9033;fill-opacity:0.54667443;fill-rule:evenodd;stroke:#9b00ca;stroke-width:0.276798;stroke-linecap:round;stroke-miterlimit:4;stroke-dasharray:none;stroke-opacity:1"
       d="m 250.02132,599.79029 c 1.55744,-16.30488 26.61233,-81.02551 48.60208,-125.5466 6.99872,-14.16981 13.77335,-25.92801 16.63387,-28.87011 l 0.56959,-0.58584 6.35322,10.96202 c 3.49427,6.02911 6.35322,11.04994 6.35322,11.1574 0,0.10745 -0.43982,0.72253 -0.97738,1.36684 -10.71012,12.83691 -41.76748,84.38103 -48.74441,112.28824 -1.01926,4.07697 -1.31352,5.85635 -1.36977,8.28302 l -0.0474,2.04493 -13.63706,5.37632 c -7.50038,2.95697 -13.69926,5.37775 -13.77528,5.37949 -0.076,0.002 -0.0583,-0.83332 0.0393,-1.85571 z"
       id="path961"
       transform="scale(0.26458333)" />
    <path
       style="fill:#611a51;fill-opacity:0.37723652;fill-rule:evenodd;stroke:#9b00ca;stroke-width:0.276798;stroke-linecap:round;stroke-miterlimit:4;stroke-dasharray:none;stroke-opacity:1"
       d="m 376.25806,713.52755 c -15.38877,-7.89582 -55.78359,-40.31318 -91.7641,-73.64184 -6.73621,-6.23973 -22.94306,-22.43282 -26.42846,-26.40601 -4.29893,-4.90059 -8.10459,-9.99785 -7.73809,-10.36434 0.0533,-0.0533 6.28308,-2.53124 13.84399,-5.50655 l 13.74709,-5.40966 0.7368,1.29637 c 4.2131,7.41274 24.07146,27.01558 49.14896,48.51655 25.01446,21.44691 45.26703,36.31519 51.25867,37.63118 l 0.83403,0.18318 -0.15869,4.32855 c -0.0873,2.3807 -0.2314,9.55608 -0.32029,15.9453 -0.0889,6.38921 -0.23206,12.33411 -0.31818,13.21088 l -0.15657,1.59413 z"
       id="path963"
       transform="scale(0.26458333)" />
  </g>
</svg>
